<?xml version="1.0" encoding="UTF-8"?>
<svg xmlns="http://www.w3.org/2000/svg" xmlns:xlink="http://www.w3.org/1999/xlink" width="299pt" height="299pt" viewBox="0 0 299 299" version="1.1">
<g id="surface1">
<path style=" stroke:none;fill-rule:nonzero;fill:rgb(100%,100%,100%);fill-opacity:1;" d="M 218.535156 43.007812 C 218.535156 59.839844 204.890625 73.488281 188.058594 73.488281 C 171.226562 73.488281 157.578125 59.839844 157.578125 43.007812 C 157.578125 26.175781 171.226562 12.53125 188.058594 12.53125 C 204.890625 12.53125 218.535156 26.175781 218.535156 43.007812 Z M 218.535156 43.007812 "/>
<path style=" stroke:none;fill-rule:nonzero;fill:rgb(0%,52.156863%,43.921569%);fill-opacity:1;" d="M 35.800781 245.925781 L 23.910156 216.753906 L 19.113281 245.925781 L 9.257812 245.925781 L 18.585938 196.386719 L 24.765625 196.386719 L 38.101562 228.972656 L 51.898438 196.386719 L 58.007812 196.386719 L 66.550781 245.925781 L 56.5625 245.925781 L 52.226562 216.820312 L 39.875 245.925781 Z M 35.800781 245.925781 "/>
<path style=" stroke:none;fill-rule:nonzero;fill:rgb(0%,52.156863%,43.921569%);fill-opacity:1;" d="M 76.410156 229.695312 C 76.410156 220.101562 83.769531 212.941406 94.148438 212.941406 C 104.464844 212.941406 111.886719 219.90625 111.886719 229.894531 C 111.886719 239.945312 104.527344 246.84375 94.015625 246.84375 C 83.769531 246.84375 76.410156 239.945312 76.410156 229.695312 Z M 102.359375 229.894531 C 102.359375 224.703125 99.144531 221.089844 94.148438 221.089844 C 89.21875 221.089844 85.9375 224.703125 85.9375 229.828125 C 85.9375 235.21875 89.15625 238.695312 94.148438 238.695312 C 99.074219 238.695312 102.359375 235.21875 102.359375 229.894531 Z M 102.359375 229.894531 "/>
<path style=" stroke:none;fill-rule:nonzero;fill:rgb(0%,52.156863%,43.921569%);fill-opacity:1;" d="M 121.746094 230.023438 C 121.746094 220.367188 128.707031 212.941406 139.023438 212.941406 C 142.574219 212.941406 146.054688 213.929688 148.160156 215.113281 L 148.160156 224.703125 C 145.660156 222.273438 143.226562 221.023438 139.878906 221.023438 C 134.625 221.023438 131.402344 224.769531 131.402344 229.894531 C 131.402344 234.886719 134.292969 238.761719 139.746094 238.761719 C 143.03125 238.761719 145.394531 237.582031 148.160156 235.28125 L 147.960938 244.609375 C 145.792969 245.925781 142.503906 246.84375 139.285156 246.84375 C 128.773438 246.84375 121.746094 239.945312 121.746094 230.023438 Z M 121.746094 230.023438 "/>
<path style=" stroke:none;fill-rule:nonzero;fill:rgb(0%,52.156863%,43.921569%);fill-opacity:1;" d="M 192.703125 245.925781 L 181.140625 245.925781 L 171.613281 232.523438 L 170.300781 233.441406 L 170.300781 245.925781 L 160.769531 245.925781 L 160.769531 192.183594 L 170.300781 192.183594 L 170.300781 225.164062 L 180.285156 213.796875 L 191.785156 213.796875 L 178.382812 227.792969 Z M 192.703125 245.925781 "/>
<path style=" stroke:none;fill-rule:nonzero;fill:rgb(0%,52.156863%,43.921569%);fill-opacity:1;" d="M 200.917969 200.65625 C 200.917969 197.570312 203.480469 195.203125 206.699219 195.203125 C 209.984375 195.203125 212.613281 197.503906 212.613281 200.65625 C 212.613281 203.941406 209.917969 206.242188 206.765625 206.242188 C 203.546875 206.242188 200.917969 203.941406 200.917969 200.65625 Z M 202.035156 245.925781 L 202.035156 213.796875 L 211.5625 213.796875 L 211.5625 245.925781 Z M 202.035156 245.925781 "/>
<path style=" stroke:none;fill-rule:nonzero;fill:rgb(0%,52.156863%,43.921569%);fill-opacity:1;" d="M 227.132812 245.925781 L 227.132812 222.207031 L 222.011719 222.207031 L 222.011719 213.796875 L 227.132812 213.796875 L 227.132812 202.429688 L 236.660156 202.429688 L 236.660156 213.796875 L 242.375 213.796875 L 242.375 222.207031 L 236.660156 222.207031 L 236.660156 245.925781 Z M 227.132812 245.925781 "/>
<path style=" stroke:none;fill-rule:nonzero;fill:rgb(0%,52.156863%,43.921569%);fill-opacity:1;" d="M 250.128906 229.695312 C 250.128906 220.101562 257.488281 212.941406 267.871094 212.941406 C 278.183594 212.941406 285.609375 219.90625 285.609375 229.894531 C 285.609375 239.945312 278.253906 246.84375 267.742188 246.84375 C 257.488281 246.84375 250.128906 239.945312 250.128906 229.695312 Z M 276.082031 229.894531 C 276.082031 224.703125 272.863281 221.089844 267.871094 221.089844 C 262.941406 221.089844 259.65625 224.703125 259.65625 229.828125 C 259.65625 235.21875 262.878906 238.695312 267.871094 238.695312 C 272.796875 238.695312 276.082031 235.21875 276.082031 229.894531 Z M 276.082031 229.894531 "/>
<path style=" stroke:none;fill-rule:nonzero;fill:rgb(19.607843%,42.745098%,40%);fill-opacity:1;" d="M 24.753906 262.742188 C 23.917969 262 23.0625 261.453125 22.1875 261.105469 C 21.308594 260.757812 20.367188 260.585938 19.367188 260.585938 C 17.3125 260.585938 15.679688 261.199219 14.460938 262.425781 C 13.238281 263.65625 12.628906 265.304688 12.628906 267.378906 C 12.628906 269.40625 13.195312 271.011719 14.328125 272.203125 C 15.460938 273.394531 17.003906 273.988281 18.960938 273.988281 C 20.074219 273.988281 21.109375 273.800781 22.070312 273.429688 C 23.023438 273.054688 23.910156 272.496094 24.726562 271.75 L 24.699219 275.972656 C 23.820312 276.492188 22.902344 276.878906 21.941406 277.132812 C 20.980469 277.386719 19.96875 277.515625 18.910156 277.515625 C 15.835938 277.515625 13.316406 276.558594 11.34375 274.652344 C 9.375 272.742188 8.386719 270.320312 8.386719 267.378906 C 8.386719 264.445312 9.378906 262.03125 11.351562 260.125 C 13.324219 258.21875 15.871094 257.265625 18.984375 257.265625 C 20.03125 257.265625 21.039062 257.378906 22.011719 257.597656 C 22.988281 257.816406 23.949219 258.15625 24.894531 258.613281 Z M 24.753906 262.742188 "/>
<path style=" stroke:none;fill-rule:nonzero;fill:rgb(19.607843%,42.745098%,40%);fill-opacity:1;" d="M 61.257812 267.402344 C 61.257812 268.78125 61.003906 270.085938 60.492188 271.3125 C 59.976562 272.542969 59.234375 273.621094 58.269531 274.550781 C 57.269531 275.507812 56.144531 276.242188 54.886719 276.75 C 53.632812 277.261719 52.332031 277.515625 50.992188 277.515625 C 49.8125 277.515625 48.660156 277.3125 47.535156 276.914062 C 46.40625 276.519531 45.371094 275.945312 44.433594 275.199219 C 43.222656 274.234375 42.296875 273.078125 41.648438 271.734375 C 41.003906 270.390625 40.679688 268.949219 40.679688 267.402344 C 40.679688 266.019531 40.933594 264.71875 41.445312 263.5 C 41.953125 262.285156 42.699219 261.203125 43.683594 260.257812 C 44.648438 259.316406 45.769531 258.589844 47.046875 258.070312 C 48.324219 257.554688 49.640625 257.296875 50.992188 257.296875 C 52.332031 257.296875 53.636719 257.554688 54.90625 258.070312 C 56.175781 258.589844 57.296875 259.316406 58.269531 260.257812 C 59.242188 261.203125 59.984375 262.285156 60.492188 263.511719 C 61.003906 264.726562 61.257812 266.027344 61.257812 267.402344 Z M 50.992188 273.839844 C 52.738281 273.839844 54.175781 273.230469 55.316406 272.007812 C 56.453125 270.78125 57.019531 269.246094 57.019531 267.40625 C 57.019531 265.582031 56.445312 264.042969 55.292969 262.796875 C 54.144531 261.550781 52.710938 260.929688 50.992188 260.929688 C 49.242188 260.929688 47.796875 261.550781 46.644531 262.789062 C 45.496094 264.035156 44.917969 265.570312 44.917969 267.40625 C 44.917969 269.269531 45.488281 270.800781 46.621094 272.019531 C 47.75 273.234375 49.207031 273.839844 50.992188 273.839844 Z M 50.992188 273.839844 "/>
<path style=" stroke:none;fill-rule:nonzero;fill:rgb(19.607843%,42.745098%,40%);fill-opacity:1;" d="M 76.003906 277 L 78.941406 257.726562 L 83.257812 257.726562 L 86.96875 269.078125 C 87.050781 269.3125 87.136719 269.660156 87.226562 270.117188 C 87.320312 270.574219 87.40625 271.09375 87.484375 271.683594 C 87.554688 271.085938 87.628906 270.550781 87.71875 270.082031 C 87.804688 269.613281 87.894531 269.269531 87.96875 269.046875 L 91.746094 257.726562 L 96 257.726562 L 98.949219 277 L 95.039062 277 L 93.628906 265.375 C 93.523438 264.515625 93.453125 263.867188 93.421875 263.429688 C 93.386719 262.988281 93.367188 262.582031 93.367188 262.203125 C 93.367188 262.003906 93.371094 261.851562 93.375 261.75 C 93.375 261.648438 93.386719 261.5625 93.394531 261.480469 C 93.261719 262.234375 93.136719 262.886719 93.019531 263.4375 C 92.898438 263.984375 92.789062 264.398438 92.699219 264.679688 L 88.617188 277 L 86.296875 277 L 82.28125 264.679688 C 82.246094 264.566406 82.171875 264.25 82.054688 263.730469 C 81.933594 263.214844 81.769531 262.460938 81.558594 261.46875 L 81.558594 262.03125 C 81.558594 262.925781 81.480469 264.023438 81.320312 265.324219 L 81.308594 265.375 L 79.914062 277 Z M 76.003906 277 "/>
<path style=" stroke:none;fill-rule:nonzero;fill:rgb(19.607843%,42.745098%,40%);fill-opacity:1;" d="M 114.5625 277 L 114.5625 257.726562 L 119.300781 257.726562 C 121.828125 257.726562 123.695312 258.210938 124.902344 259.175781 C 126.109375 260.140625 126.710938 261.632812 126.710938 263.652344 C 126.710938 265.519531 126.105469 266.988281 124.890625 268.046875 C 123.675781 269.109375 121.988281 269.640625 119.84375 269.640625 L 118.707031 269.640625 L 118.707031 277 Z M 118.707031 266.429688 L 119.300781 266.429688 C 120.425781 266.429688 121.242188 266.199219 121.75 265.734375 C 122.257812 265.269531 122.515625 264.523438 122.515625 263.496094 C 122.515625 262.546875 122.257812 261.855469 121.75 261.421875 C 121.242188 260.988281 120.425781 260.769531 119.300781 260.769531 L 118.707031 260.769531 Z M 118.707031 266.429688 "/>
<path style=" stroke:none;fill-rule:nonzero;fill:rgb(19.607843%,42.745098%,40%);fill-opacity:1;" d="M 142.5 277 L 142.5 257.726562 L 153.847656 257.726562 L 153.847656 261.203125 L 146.621094 261.203125 L 146.621094 265.164062 L 153.847656 265.164062 L 153.847656 268.667969 L 146.621094 268.667969 L 146.621094 273.5 L 153.847656 273.5 L 153.847656 277 Z M 142.5 277 "/>
<path style=" stroke:none;fill-rule:nonzero;fill:rgb(19.607843%,42.745098%,40%);fill-opacity:1;" d="M 170.828125 277 L 170.828125 257.726562 L 176.082031 257.726562 C 178.152344 257.726562 179.785156 257.875 180.980469 258.160156 C 182.171875 258.453125 183.222656 258.933594 184.128906 259.613281 C 185.292969 260.480469 186.179688 261.574219 186.777344 262.894531 C 187.382812 264.21875 187.679688 265.722656 187.679688 267.40625 C 187.679688 269.117188 187.375 270.632812 186.761719 271.953125 C 186.144531 273.273438 185.246094 274.363281 184.058594 275.222656 C 183.183594 275.855469 182.207031 276.308594 181.132812 276.589844 C 180.054688 276.863281 178.480469 277 176.410156 277 Z M 174.949219 273.523438 L 177.242188 273.523438 C 179.398438 273.523438 180.972656 273.03125 181.960938 272.050781 C 182.949219 271.070312 183.441406 269.511719 183.441406 267.378906 C 183.441406 265.253906 182.949219 263.695312 181.960938 262.710938 C 180.972656 261.726562 179.398438 261.230469 177.242188 261.230469 L 174.949219 261.230469 Z M 174.949219 273.523438 "/>
<path style=" stroke:none;fill-rule:nonzero;fill:rgb(19.607843%,42.745098%,40%);fill-opacity:1;" d="M 204.148438 277 L 204.148438 257.726562 L 208.269531 257.726562 L 208.269531 277 Z M 204.148438 277 "/>
<path style=" stroke:none;fill-rule:nonzero;fill:rgb(19.607843%,42.745098%,40%);fill-opacity:1;" d="M 242.183594 257.726562 L 242.183594 269.722656 C 242.183594 272.335938 241.496094 274.289062 240.117188 275.578125 C 238.738281 276.867188 236.664062 277.515625 233.890625 277.515625 C 231.070312 277.515625 228.972656 276.867188 227.597656 275.578125 C 226.21875 274.289062 225.527344 272.335938 225.527344 269.722656 L 225.527344 257.726562 L 229.625 257.726562 L 229.625 269.074219 C 229.625 270.664062 229.972656 271.859375 230.675781 272.660156 C 231.378906 273.464844 232.425781 273.867188 233.824219 273.867188 C 235.230469 273.867188 236.289062 273.464844 237.007812 272.65625 C 237.726562 271.847656 238.085938 270.65625 238.085938 269.074219 L 238.085938 257.726562 Z M 242.183594 257.726562 "/>
<path style=" stroke:none;fill-rule:nonzero;fill:rgb(19.607843%,42.745098%,40%);fill-opacity:1;" d="M 257.714844 277 L 260.652344 257.726562 L 264.972656 257.726562 L 268.683594 269.078125 C 268.765625 269.3125 268.847656 269.660156 268.941406 270.117188 C 269.035156 270.574219 269.117188 271.09375 269.199219 271.683594 C 269.269531 271.085938 269.347656 270.550781 269.433594 270.082031 C 269.523438 269.613281 269.605469 269.269531 269.6875 269.046875 L 273.464844 257.726562 L 277.714844 257.726562 L 280.664062 277 L 276.75 277 L 275.347656 265.375 C 275.238281 264.515625 275.167969 263.867188 275.136719 263.429688 C 275.101562 262.988281 275.085938 262.582031 275.085938 262.203125 C 275.085938 262.003906 275.085938 261.851562 275.085938 261.75 C 275.09375 261.648438 275.101562 261.5625 275.109375 261.480469 C 274.980469 262.234375 274.851562 262.886719 274.734375 263.4375 C 274.617188 263.984375 274.507812 264.398438 274.410156 264.679688 L 270.328125 277 L 268.011719 277 L 264 264.679688 C 263.964844 264.566406 263.882812 264.25 263.765625 263.730469 C 263.648438 263.214844 263.484375 262.460938 263.273438 261.46875 L 263.273438 262.03125 C 263.273438 262.925781 263.195312 264.023438 263.035156 265.324219 L 263.023438 265.375 L 261.632812 277 Z M 257.714844 277 "/>
<path style=" stroke:none;fill-rule:nonzero;fill:rgb(100%,100%,100%);fill-opacity:1;" d="M 95.839844 111.503906 L 105.40625 104.03125 L 126.574219 103.128906 L 196.742188 103.128906 L 198.664062 114.335938 L 197.976562 128.066406 L 194.167969 139.054688 L 106.835938 139.054688 L 96.839844 132.105469 L 93.140625 123.332031 Z M 95.839844 111.503906 "/>
<path style=" stroke:none;fill-rule:nonzero;fill:rgb(0%,52.156863%,43.921569%);fill-opacity:1;" d="M 187.695312 66.6875 C 187.449219 66.6875 187.199219 66.683594 186.945312 66.675781 L 165.519531 48.972656 C 165.152344 47.339844 164.96875 45.65625 164.96875 43.957031 C 164.96875 31.417969 175.164062 21.222656 187.695312 21.222656 C 200.234375 21.222656 210.429688 31.417969 210.429688 43.957031 C 210.429688 56.492188 200.234375 66.6875 187.695312 66.6875 Z M 187.695312 66.6875 "/>
<path style=" stroke:none;fill-rule:nonzero;fill:rgb(19.607843%,42.745098%,40%);fill-opacity:1;" d="M 187.695312 79.03125 C 186.089844 79.03125 184.46875 78.917969 182.882812 78.699219 C 181.121094 78.457031 179.886719 76.832031 180.132812 75.074219 C 180.371094 73.3125 181.988281 72.078125 183.757812 72.324219 C 185.054688 72.503906 186.378906 72.589844 187.695312 72.589844 C 203.492188 72.589844 216.335938 59.746094 216.335938 43.957031 C 216.335938 28.164062 203.492188 15.320312 187.695312 15.320312 C 171.910156 15.320312 159.0625 28.164062 159.0625 43.957031 C 159.0625 47.113281 159.570312 50.210938 160.574219 53.171875 C 161.148438 54.855469 160.246094 56.679688 158.566406 57.253906 C 156.878906 57.828125 155.050781 56.925781 154.480469 55.242188 C 153.25 51.613281 152.621094 47.820312 152.621094 43.957031 C 152.621094 24.613281 168.359375 8.878906 187.695312 8.878906 C 207.039062 8.878906 222.769531 24.613281 222.769531 43.957031 C 222.769531 63.296875 207.039062 79.03125 187.695312 79.03125 Z M 187.695312 79.03125 "/>
<path style=" stroke:none;fill-rule:nonzero;fill:rgb(0%,52.156863%,43.921569%);fill-opacity:1;" d="M 111.027344 103.128906 L 196.742188 103.128906 L 189.125 43.957031 L 102.539062 43.957031 L 93.6875 112.945312 C 93.339844 115.652344 93.058594 118.320312 93.058594 121.09375 C 93.058594 111.171875 101.105469 103.128906 111.027344 103.128906 Z M 111.027344 103.128906 "/>
<path style=" stroke:none;fill-rule:nonzero;fill:rgb(0%,52.156863%,43.921569%);fill-opacity:1;" d="M 111.027344 139.054688 C 101.105469 139.054688 93.058594 131.011719 93.058594 121.09375 C 93.058594 150.253906 128.992188 173.894531 145.863281 173.894531 C 159.035156 173.894531 183.988281 159.371094 194.167969 139.054688 Z M 111.027344 139.054688 "/>
<path style=" stroke:none;fill-rule:nonzero;fill:rgb(100%,100%,100%);fill-opacity:1;" d="M 189.125 43.957031 L 178.65625 43.957031 L 185.199219 103.128906 L 196.742188 103.128906 Z M 189.125 43.957031 "/>
<path style=" stroke:none;fill-rule:nonzero;fill:rgb(100%,100%,100%);fill-opacity:1;" d="M 181.796875 139.054688 C 181.796875 139.054688 161.644531 170.691406 145.863281 170.691406 L 145.863281 173.894531 C 145.863281 173.894531 165.464844 174.53125 183.300781 153.976562 C 191.542969 143.769531 194.167969 139.054688 194.167969 139.054688 Z M 181.796875 139.054688 "/>
<path style=" stroke:none;fill-rule:nonzero;fill:rgb(19.607843%,42.745098%,40%);fill-opacity:1;" d="M 145.863281 177.109375 C 136.308594 177.109375 122.316406 170.582031 111.035156 160.867188 C 103.117188 154.042969 89.839844 139.8125 89.839844 121.09375 C 89.839844 118.035156 90.15625 115.171875 90.496094 112.53125 L 98.664062 48.871094 L 105.050781 49.691406 L 96.882812 113.351562 C 96.570312 115.777344 96.28125 118.398438 96.28125 121.09375 C 96.28125 149.214844 131.484375 170.671875 145.863281 170.671875 C 153.835938 170.671875 166.421875 164.632812 176.464844 155.988281 C 183.554688 149.882812 195.441406 137.238281 195.441406 121.09375 C 195.441406 118.242188 195.105469 115.429688 194.746094 112.816406 L 186.597656 49.523438 L 192.980469 48.707031 L 201.125 111.964844 C 201.515625 114.773438 201.882812 117.851562 201.882812 121.09375 C 201.878906 151.75 164.789062 177.109375 145.863281 177.109375 Z M 145.863281 177.109375 "/>
<path style=" stroke:none;fill-rule:nonzero;fill:rgb(19.607843%,42.745098%,40%);fill-opacity:1;" d="M 93.058594 124.308594 C 91.285156 124.308594 89.839844 122.867188 89.839844 121.09375 C 89.839844 118.035156 90.15625 115.171875 90.496094 112.53125 L 98.664062 48.871094 L 105.050781 49.691406 L 98.035156 104.371094 C 101.625 101.574219 106.136719 99.910156 111.027344 99.910156 L 193.082031 99.910156 L 186.597656 49.523438 L 192.980469 48.707031 L 199.933594 102.714844 C 200.050781 103.632812 199.769531 104.558594 199.15625 105.253906 C 198.546875 105.949219 197.664062 106.347656 196.742188 106.347656 L 111.027344 106.347656 C 102.898438 106.347656 96.28125 112.960938 96.28125 121.09375 C 96.28125 122.867188 94.84375 124.308594 93.058594 124.308594 Z M 93.058594 124.308594 "/>
<path style=" stroke:none;fill-rule:nonzero;fill:rgb(19.607843%,42.745098%,40%);fill-opacity:1;" d="M 145.863281 177.109375 C 126.933594 177.109375 89.839844 151.75 89.839844 121.09375 C 89.839844 119.316406 91.285156 117.875 93.058594 117.875 C 94.84375 117.875 96.28125 119.316406 96.28125 121.09375 C 96.28125 129.222656 102.898438 135.835938 111.027344 135.835938 L 194.167969 135.835938 C 195.28125 135.835938 196.316406 136.414062 196.902344 137.363281 C 197.488281 138.316406 197.542969 139.5 197.042969 140.5 C 186.710938 161.117188 161.046875 177.109375 145.863281 177.109375 Z M 101.644531 140.082031 C 112.0625 158.324219 134.953125 170.671875 145.863281 170.671875 C 156.429688 170.671875 177.554688 159.523438 188.628906 142.277344 L 111.027344 142.277344 C 107.660156 142.277344 104.472656 141.488281 101.644531 140.082031 Z M 101.644531 140.082031 "/>
<path style=" stroke:none;fill-rule:nonzero;fill:rgb(19.607843%,42.745098%,40%);fill-opacity:1;" d="M 194.167969 115.945312 L 131.507812 115.945312 C 130.621094 115.945312 129.902344 115.226562 129.902344 114.335938 C 129.902344 113.445312 130.621094 112.726562 131.507812 112.726562 L 194.167969 112.726562 C 195.050781 112.726562 195.773438 113.445312 195.773438 114.335938 C 195.773438 115.226562 195.050781 115.945312 194.167969 115.945312 Z M 194.167969 115.945312 "/>
<path style=" stroke:none;fill-rule:nonzero;fill:rgb(19.607843%,42.745098%,40%);fill-opacity:1;" d="M 194.167969 122.703125 L 109.191406 122.703125 C 108.304688 122.703125 107.582031 121.980469 107.582031 121.09375 C 107.582031 120.203125 108.304688 119.484375 109.191406 119.484375 L 194.167969 119.484375 C 195.050781 119.484375 195.773438 120.203125 195.773438 121.09375 C 195.773438 121.980469 195.050781 122.703125 194.167969 122.703125 Z M 194.167969 122.703125 "/>
<path style=" stroke:none;fill-rule:nonzero;fill:rgb(19.607843%,42.745098%,40%);fill-opacity:1;" d="M 194.167969 129.679688 L 131.507812 129.679688 C 130.621094 129.679688 129.902344 128.957031 129.902344 128.066406 C 129.902344 127.179688 130.621094 126.460938 131.507812 126.460938 L 194.167969 126.460938 C 195.050781 126.460938 195.773438 127.179688 195.773438 128.066406 C 195.773438 128.957031 195.050781 129.679688 194.167969 129.679688 Z M 194.167969 129.679688 "/>
<path style=" stroke:none;fill-rule:nonzero;fill:rgb(19.607843%,42.745098%,40%);fill-opacity:1;" d="M 189.125 47.171875 L 102.539062 47.171875 C 100.761719 47.171875 99.320312 45.734375 99.320312 43.953125 C 99.320312 42.179688 100.761719 40.738281 102.539062 40.738281 L 189.125 40.738281 C 190.902344 40.738281 192.34375 42.179688 192.34375 43.953125 C 192.34375 45.734375 190.902344 47.171875 189.125 47.171875 Z M 189.125 47.171875 "/>
<path style=" stroke:none;fill-rule:nonzero;fill:rgb(19.607843%,42.745098%,40%);fill-opacity:1;" d="M 190.558594 58.363281 C 188.96875 58.363281 187.582031 57.179688 187.375 55.554688 L 186.292969 47.171875 L 105.371094 47.171875 L 104.3125 55.433594 C 104.085938 57.195312 102.476562 58.4375 100.714844 58.214844 C 98.949219 57.984375 97.703125 56.375 97.929688 54.613281 L 99.117188 45.355469 C 99.449219 42.765625 101.753906 40.738281 104.367188 40.738281 L 187.300781 40.738281 C 189.910156 40.738281 192.21875 42.765625 192.550781 45.355469 L 193.757812 54.734375 C 193.980469 56.492188 192.738281 58.109375 190.972656 58.335938 C 190.835938 58.355469 190.699219 58.363281 190.558594 58.363281 Z M 190.558594 58.363281 "/>
</g>
</svg>
